<svg width="81" height="20" viewBox="0 0 81 20" fill="none" xmlns="http://www.w3.org/2000/svg">
<rect width="81" height="20" fill="#1E1E1E"/>
<g clip-path="url(#clip0_13_226)">
<path d="M5.77068 7.11823L5.77089 3.08382L3.13478 3.08364L3.13437 8.41484L5.77068 7.11823ZM8.92246 9.36619L8.92204 17.2333C8.92184 19.1065 7.97625 19.9997 5.9991 19.9996L-0.0182495 19.9992L-0.0170042 0L6.25829 0.000399722C7.92021 0.000505127 8.92298 0.980356 8.92288 2.73821L8.92267 6.94554C8.92257 8.24231 8.52135 9.02035 7.51848 9.36609L8.92246 9.36619ZM5.77005 16.8873L5.77047 10.461L3.13416 11.7865L3.13385 16.8871L5.77005 16.8873Z" fill="white"/>
<path d="M17.9689 19.9996L15.029 19.9994L15.0295 11.5271L12.8632 12.766L12.8628 19.9992L9.92288 19.999L9.92391 2.73746C9.924 0.979611 10.8008 -0.000106439 12.2966 8.67336e-09L15.5717 0.000231655C17.0674 0.000337059 17.97 0.980185 17.9699 2.73803L17.9689 19.9996ZM15.0296 8.01137L15.0299 3.17009L12.8637 3.16993L12.8634 9.19272L15.0296 8.01137Z" fill="white"/>
<path d="M23.9156 8.06911L23.9159 3.17022L21.818 3.17007L21.8176 9.27927L23.9156 8.06911ZM26.7627 9.91364L24.6647 11.1526L27.911 19.9996L24.939 19.9994L22.2421 12.5933L21.8174 12.8526L21.8171 19.9992L18.9699 19.999L18.971 0L24.4406 0.000399718C25.8891 0.000506165 26.7633 0.980342 26.7631 2.73818L26.7627 9.91364Z" fill="white"/>
<path d="M34.121 7.11822L34.1213 3.08381L31.7487 3.08365L31.7484 8.41483L34.121 7.11822ZM36.9576 9.36617L36.9572 17.2333C36.9571 19.1064 36.106 19.9997 34.3266 19.9996L28.911 19.9992L28.9121 0L34.5598 0.000399722C36.0555 0.000505126 36.9581 0.980352 36.958 2.7382L36.9577 6.94552C36.9576 8.2423 36.5967 9.02034 35.694 9.36608L36.9576 9.36617ZM34.1205 16.8872L34.1208 10.461L31.7482 11.7864L31.748 16.8871L34.1205 16.8872Z" fill="white"/>
<path d="M44.2158 19.9996L37.958 19.9991L37.959 0L44.2168 0.000501982L44.2167 3.1992L40.553 3.19891L40.5528 8.35715L44.2166 6.02327L44.2164 9.59659L40.5526 11.9593L40.5524 16.8005L44.216 16.8008L44.2158 19.9996Z" fill="white"/>
<path d="M49.8359 8.06911L49.8361 3.17022L47.8768 3.17007L47.8764 9.27927L49.8359 8.06911ZM52.4949 9.91364L50.5354 11.1526L53.5673 19.9996L50.7916 19.9994L48.2729 12.5933L47.8763 12.8526L47.8759 19.9992L45.2168 19.999L45.2178 0L50.3261 0.000399718C51.679 0.000506165 52.4954 0.980342 52.4952 2.73818L52.4949 9.91364Z" fill="white"/>
<path d="M59.6996 8.06921L59.6999 3.17033L57.5228 3.17018L57.5225 9.27938L59.6996 8.06921ZM62.6541 9.91375L58.2787 12.6314L57.5219 13.1577V19.9993L54.5674 19.9991L54.5685 0.000106812L60.2444 0.000506529C61.7476 0.000612976 62.6546 0.980449 62.6544 2.73828L62.6541 9.91375Z" fill="#8162FF"/>
<path d="M68.6002 8.06911L68.6004 3.17022L66.5025 3.17007L66.5022 9.27927L68.6002 8.06911ZM71.4473 9.91364L69.3492 11.1526L72.5956 19.9996L69.6235 19.9994L66.9266 12.5933L66.502 12.8526L66.5016 19.9992L63.6544 19.999L63.6555 0L69.1251 0.000399718C70.5737 0.000506165 71.4478 0.980342 71.4476 2.73818L71.4473 9.91364Z" fill="#8162FF"/>
<path d="M81.0183 3.38361C81.0183 2.55977 80.7177 1.76423 80.1729 1.14621L79.7761 0.696034C79.3861 0.253524 78.8246 0 78.2348 0H77.3069H76.3791C76.0184 0 75.8263 0.425452 76.0648 0.696034L78.2348 3.15783V15.9139C78.2348 16.4263 77.8194 16.8418 77.3069 16.8418C76.7945 16.8418 76.3791 16.4263 76.3791 15.9139V3.15783L75.2194 1.84225C74.85 1.42317 74.1968 1.42317 73.8274 1.84225C73.678 2.01171 73.5956 2.22986 73.5956 2.45577V16.616C73.5956 17.4398 73.8961 18.2354 74.4409 18.8534L74.8377 19.3035C75.2278 19.7461 75.7892 19.9996 76.3791 19.9996H77.3069H78.2348C78.8246 19.9996 79.3861 19.7461 79.7761 19.3035L80.1729 18.8534C80.7177 18.2354 81.0183 17.4398 81.0183 16.616V3.38361Z" fill="#8162FF"/>
</g>
<defs>
<clipPath id="clip0_13_226">
<rect width="81" height="19.9996" fill="white"/>
</clipPath>
</defs>
</svg>
